<mxfile host="app.diagrams.net" modified="2022-04-15T07:37:49.305Z" agent="5.0 (Windows NT 10.0; Win64; x64) AppleWebKit/537.36 (KHTML, like Gecko) Chrome/100.0.4896.75 Safari/537.36" etag="Yg4xrhxKAkI5YQZpv9Ao" version="17.4.4" type="github">
  <diagram id="JnaGklpaEt3gBbap_LU8" name="Page-1">
    <mxGraphModel dx="1108" dy="450" grid="1" gridSize="10" guides="1" tooltips="1" connect="1" arrows="1" fold="1" page="1" pageScale="1" pageWidth="850" pageHeight="1100" math="0" shadow="0">
      <root>
        <mxCell id="0" />
        <mxCell id="1" parent="0" />
        <mxCell id="hq-Y6H_N_8pxkBm-BwiN-1" value="&lt;font style=&quot;font-size: 15px&quot;&gt;&lt;b&gt;The resident&lt;/b&gt;&lt;/font&gt;" style="shape=umlActor;verticalLabelPosition=bottom;labelBackgroundColor=#ffffff;verticalAlign=top;html=1;outlineConnect=0;fillColor=#FFE599;" vertex="1" parent="1">
          <mxGeometry x="280" y="180" width="30" height="60" as="geometry" />
        </mxCell>
        <mxCell id="hq-Y6H_N_8pxkBm-BwiN-2" value="" style="edgeStyle=orthogonalEdgeStyle;rounded=0;orthogonalLoop=1;jettySize=auto;html=1;" edge="1" parent="1" target="hq-Y6H_N_8pxkBm-BwiN-4">
          <mxGeometry relative="1" as="geometry">
            <mxPoint x="340" y="210" as="sourcePoint" />
          </mxGeometry>
        </mxCell>
        <mxCell id="hq-Y6H_N_8pxkBm-BwiN-3" value="" style="edgeStyle=orthogonalEdgeStyle;rounded=0;orthogonalLoop=1;jettySize=auto;html=1;" edge="1" parent="1" source="hq-Y6H_N_8pxkBm-BwiN-4" target="hq-Y6H_N_8pxkBm-BwiN-6">
          <mxGeometry relative="1" as="geometry" />
        </mxCell>
        <mxCell id="hq-Y6H_N_8pxkBm-BwiN-4" value="&lt;div&gt;&lt;font style=&quot;font-size: 14px&quot;&gt;Navigates to&lt;b&gt; &quot;Track request using AID&quot;&lt;/b&gt;&lt;/font&gt;&lt;br&gt;&lt;/div&gt;" style="rounded=1;whiteSpace=wrap;html=1;fillColor=#D5E8D4;arcSize=10;" vertex="1" parent="1">
          <mxGeometry x="410" y="180" width="120" height="60" as="geometry" />
        </mxCell>
        <mxCell id="hq-Y6H_N_8pxkBm-BwiN-5" value="" style="edgeStyle=orthogonalEdgeStyle;rounded=0;orthogonalLoop=1;jettySize=auto;html=1;" edge="1" parent="1" source="hq-Y6H_N_8pxkBm-BwiN-6" target="hq-Y6H_N_8pxkBm-BwiN-8">
          <mxGeometry relative="1" as="geometry" />
        </mxCell>
        <mxCell id="hq-Y6H_N_8pxkBm-BwiN-6" value="&lt;font style=&quot;font-size: 14px&quot;&gt;1. Enters UIN/VID&lt;br&gt;2. Enters captcha&lt;br&gt;3. Enters OTP&lt;/font&gt;" style="rounded=1;whiteSpace=wrap;html=1;fillColor=#D5E8D4;" vertex="1" parent="1">
          <mxGeometry x="600" y="150" width="150" height="120" as="geometry" />
        </mxCell>
        <mxCell id="hq-Y6H_N_8pxkBm-BwiN-7" value="" style="edgeStyle=orthogonalEdgeStyle;rounded=0;orthogonalLoop=1;jettySize=auto;html=1;entryX=0;entryY=0.5;entryDx=0;entryDy=0;" edge="1" parent="1" source="hq-Y6H_N_8pxkBm-BwiN-8" target="hq-Y6H_N_8pxkBm-BwiN-10">
          <mxGeometry relative="1" as="geometry">
            <mxPoint x="940" y="210" as="targetPoint" />
          </mxGeometry>
        </mxCell>
        <mxCell id="hq-Y6H_N_8pxkBm-BwiN-8" value="&lt;font style=&quot;font-size: 14px&quot;&gt;Enters AID&lt;br&gt;and clicks on Submit&lt;/font&gt;" style="rounded=1;whiteSpace=wrap;html=1;fillColor=#D5E8D4;" vertex="1" parent="1">
          <mxGeometry x="840" y="170" width="140" height="80" as="geometry" />
        </mxCell>
        <mxCell id="hq-Y6H_N_8pxkBm-BwiN-9" value="" style="edgeStyle=orthogonalEdgeStyle;rounded=0;orthogonalLoop=1;jettySize=auto;html=1;" edge="1" parent="1" source="hq-Y6H_N_8pxkBm-BwiN-10" target="hq-Y6H_N_8pxkBm-BwiN-12">
          <mxGeometry relative="1" as="geometry" />
        </mxCell>
        <mxCell id="hq-Y6H_N_8pxkBm-BwiN-10" value="&lt;font style=&quot;font-size: 14px&quot;&gt;Gets the status associated with the AID&lt;/font&gt;" style="rounded=1;whiteSpace=wrap;html=1;fillColor=#D5E8D4;" vertex="1" parent="1">
          <mxGeometry x="1030" y="159.38" width="130" height="101.25" as="geometry" />
        </mxCell>
        <mxCell id="hq-Y6H_N_8pxkBm-BwiN-11" value="After successful validation, a session is created" style="text;html=1;strokeColor=none;fillColor=none;align=center;verticalAlign=middle;whiteSpace=wrap;rounded=0;" vertex="1" parent="1">
          <mxGeometry x="760" y="160" width="70" height="20" as="geometry" />
        </mxCell>
        <mxCell id="hq-Y6H_N_8pxkBm-BwiN-12" value="&lt;font style=&quot;font-size: 14px&quot;&gt;Gets a notification of the transaction over registered email Id &amp;amp; phone number&lt;/font&gt;" style="rounded=1;whiteSpace=wrap;html=1;fillColor=#D5E8D4;shadow=0;" vertex="1" parent="1">
          <mxGeometry x="1220" y="162.19" width="150" height="95.62" as="geometry" />
        </mxCell>
      </root>
    </mxGraphModel>
  </diagram>
</mxfile>
